<svg width="800" height="800" viewBox="0 0 800 800" fill="none" xmlns="http://www.w3.org/2000/svg">
<path fill-rule="evenodd" clip-rule="evenodd" d="M203.404 738.859C198 736 196.257 735 193.523 731.783C177.02 712.363 166.97 688.94 153.68 667.528C145.34 654.092 132.528 645.927 119.027 638.564C105.923 631.417 92.4242 624.929 80.4333 615.865C63.012 602.696 54.0426 585.118 53.3696 563.387C53.0504 553.04 52.5482 542.596 53.5249 532.331C56.1322 504.938 48.5984 480.751 32.9993 458.444C27.0962 450.001 22.0645 440.847 17.5159 431.583C7.22635 410.632 7.69052 389.492 17.7505 368.459C23.4742 356.487 30.7578 345.436 37.8257 334.279C48.5777 317.31 54.7431 299.308 53.5749 278.895C52.8692 266.559 53.4058 254.157 53.254 241.786C52.9089 213.91 65.3087 193.267 88.8989 179.118C98.0081 173.654 107.216 168.279 116.746 163.616C137.677 153.378 153.069 138.018 163.41 117.06C170.511 102.663 177.884 88.3324 188.538 75.9978C201.611 60.8623 218.33 53.9878 237.905 53.4249C247.958 53.1365 258.114 52.5045 268.069 53.5354C296.16 56.4399 320.69 48.0821 343.407 32.1885C350.908 26.9425 359.111 22.6324 367.249 18.3861C389.242 6.908 411.286 7.48475 433.385 18.4483C444.749 24.0863 455.389 30.9228 465.998 37.761C483.198 48.8454 501.651 54.5318 522.222 53.6356C534.563 53.0968 546.941 53.4542 559.301 53.3455C587.214 53.0985 607.613 65.8631 621.569 89.5412C627.257 99.1906 632.936 108.883 637.904 118.913C647.591 138.47 662.144 152.808 681.605 162.539C693.672 168.572 705.563 174.989 716.712 182.666C736.659 196.405 746.693 215.429 746.949 239.608C747.047 249.102 747.668 258.67 746.754 268.078C744.058 295.766 751.641 320.28 767.535 342.749C772.494 349.76 776.596 357.418 780.692 364.995C794.326 390.221 792.963 415.152 778.668 439.646C771.569 451.808 764.342 463.892 757.145 475.993C749.91 488.16 746.598 501.326 746.761 515.46C746.928 529.844 746.759 544.235 747.004 558.618C747.479 586.518 735.132 607.203 711.677 621.481C701.622 627.602 691.275 633.277 680.83 638.709C663.828 647.552 649.86 659.37 640.875 676.661C633.992 689.907 626.762 702.974 619.68 716.119C616 721 613.416 723.187 610.647 727.018C607 731 606 732.251 601.549 735.238C586.156 745.571 568.978 748.275 550.832 747.649C537.933 747.203 525.009 747.552 512.095 747.519C503.111 747.493 494.458 749.154 486.241 752.765C460.697 763.993 439.252 783.154 412.057 791.197C405 792 403 791.197 398.668 790.935C377 789.622 359.377 779.444 342.291 768.008C321.218 753.905 299.088 745.645 273.165 747.257C253.557 748.477 233.698 748.992 214.313 743.891C209 742.493 208.807 741.718 203.404 738.859Z" fill="#6534FF"/>
<g filter="url(#filter0_di_286_45)">
<circle cx="336" cy="336" r="308" fill="white"/>
</g>
<path d="M192.593 270.406C192.53 275.781 191.999 280.593 190.999 284.843C190.062 289.093 188.687 292.937 186.874 296.374C185.124 299.749 182.968 302.812 180.405 305.562C177.905 308.249 175.03 310.781 171.78 313.155C165.531 317.655 158.687 321.062 151.249 323.374C143.812 325.624 136.343 326.749 128.843 326.749C127.593 326.749 126.343 326.718 125.093 326.655C123.906 326.593 122.687 326.499 121.437 326.374L118.343 360.593L116.75 363.499C116.625 363.749 115.562 364.249 113.562 364.999C111.562 365.749 109.062 366.624 106.062 367.624L100.156 369.593C98.2811 370.28 96.6248 370.905 95.1873 371.468C93.7498 372.03 92.4061 372.53 91.1561 372.968C89.9061 373.405 88.6874 373.717 87.4999 373.905C86.3124 374.155 85.0624 374.28 83.7499 374.28C82.8749 374.28 82.1874 374.061 81.6874 373.624C81.1874 373.186 80.9374 372.343 80.9374 371.093L81.9687 355.061C82.1562 351.874 82.3749 348.686 82.6249 345.499C82.9374 342.249 83.2187 338.562 83.4687 334.437L85.2499 312.031C85.6249 307.468 85.9687 302.906 86.2811 298.343C86.5936 293.781 86.9061 289.437 87.2186 285.312C87.5311 281.187 87.8124 277.343 88.0624 273.781C88.3124 270.156 88.5311 267 88.7186 264.312C85.3437 265.062 82.6249 265.625 80.5624 266C78.5625 266.312 77.0312 266.468 75.9687 266.468C74.6562 266.468 74 265.906 74 264.781C74.875 261.718 75.6875 258.718 76.4375 255.781C77.125 253.281 77.8125 250.719 78.5 248.094C79.25 245.406 79.875 243.156 80.3749 241.344C80.6874 240.219 81.0312 239.375 81.4062 238.812C81.8437 238.187 82.3749 237.719 82.9999 237.406C83.6874 237.031 84.5312 236.719 85.5312 236.469C86.5936 236.156 87.8749 235.75 89.3749 235.25C90.5624 234.875 92.2186 234.469 94.3436 234.031C96.5311 233.531 98.9998 233.062 101.75 232.625C104.562 232.125 107.593 231.656 110.843 231.219C114.093 230.781 117.375 230.406 120.687 230.094C124.062 229.719 127.375 229.437 130.625 229.25C133.875 229 136.937 228.875 139.812 228.875C146.937 228.875 153.687 229.531 160.062 230.844C166.437 232.156 172.03 234.406 176.843 237.594C181.655 240.719 185.468 244.969 188.28 250.344C191.155 255.656 192.593 262.343 192.593 270.406ZM124.062 298.531C124.062 299.218 124.187 299.843 124.437 300.406C124.687 300.906 125.375 301.156 126.5 301.156C128.25 301.156 130.312 300.781 132.687 300.031C135.125 299.218 137.531 298.031 139.906 296.468C142.343 294.906 144.593 292.968 146.656 290.656C148.718 288.343 150.281 285.624 151.343 282.499C151.781 281.25 152.124 279.656 152.374 277.718C152.687 275.781 152.843 273.5 152.843 270.875C152.843 266.5 151.312 263.281 148.249 261.218C145.249 259.156 141.312 258.125 136.437 258.125C135.624 258.125 134.687 258.187 133.625 258.312C132.625 258.375 131.656 258.531 130.718 258.781C129.843 259.031 129.093 259.343 128.468 259.718C127.843 260.031 127.5 260.468 127.437 261.031L127.25 263.093C127.187 263.906 127.062 265.25 126.875 267.125C126.687 268.937 126.468 271.031 126.218 273.406C126.031 275.781 125.812 278.281 125.562 280.906C125.375 283.531 125.156 286.031 124.906 288.406C124.718 290.781 124.531 292.874 124.343 294.687C124.218 296.499 124.125 297.781 124.062 298.531Z" fill="#6534FF"/>
<path d="M239.655 303.874C239.655 308.374 240.124 312.906 241.061 317.468C242.061 321.968 243.686 326.03 245.936 329.655C248.186 333.28 251.155 336.218 254.842 338.468C258.53 340.718 263.092 341.843 268.53 341.843C272.717 341.593 276.373 340.749 279.498 339.312C282.686 337.812 285.405 335.905 287.655 333.593C289.967 331.218 291.873 328.53 293.373 325.53C294.873 322.468 296.061 319.28 296.936 315.968C297.811 312.593 298.404 309.156 298.717 305.656C299.092 302.156 299.279 298.781 299.279 295.531C299.279 291.093 298.686 286.812 297.498 282.687C296.311 278.5 294.529 274.812 292.154 271.625C289.779 268.437 286.811 265.875 283.248 263.937C279.748 262 275.655 261.031 270.967 261.031C267.28 261.031 263.936 261.718 260.936 263.093C257.999 264.468 255.374 266.312 253.061 268.625C250.749 270.875 248.749 273.5 247.061 276.5C245.436 279.437 244.061 282.499 242.936 285.687C241.874 288.812 241.061 291.968 240.499 295.156C239.999 298.281 239.717 301.187 239.655 303.874ZM257.936 372.686C248.561 372.686 240.186 370.936 232.811 367.436C225.436 363.936 219.186 359.218 214.061 353.28C208.999 347.28 205.093 340.374 202.343 332.562C199.655 324.687 198.311 316.374 198.311 307.624C198.311 297.812 199.686 288.781 202.436 280.531C205.249 272.218 209.155 264.875 214.155 258.5C219.155 252.062 225.093 246.656 231.967 242.281C238.905 237.844 246.499 234.562 254.749 232.437C255.499 232.437 256.061 231.844 256.436 230.656C256.874 229.469 257.249 228.156 257.561 226.719C257.874 225.281 258.248 223.969 258.686 222.781C259.123 221.594 259.748 221 260.561 221C272.686 222.25 283.592 224.406 293.279 227.469C302.967 230.469 311.186 234.781 317.936 240.406C324.685 246.031 329.842 253.156 333.404 261.781C337.029 270.343 338.842 280.812 338.842 293.187C338.842 301.124 337.873 308.593 335.935 315.593C333.998 322.593 331.279 329.062 327.779 334.999C324.279 340.874 320.06 346.155 315.123 350.843C310.248 355.468 304.811 359.405 298.811 362.655C292.811 365.905 286.342 368.374 279.405 370.061C272.53 371.811 265.373 372.686 257.936 372.686Z" fill="#6534FF"/>
<path d="M344.842 360.968C345.654 359.343 346.498 357.53 347.373 355.53C348.248 353.468 349.06 351.249 349.81 348.874L352.341 342.687C351.216 340.999 350.06 339.187 348.873 337.249C347.748 335.249 346.717 333.218 345.779 331.155C344.842 329.093 344.06 327.03 343.435 324.968C342.873 322.905 342.592 320.905 342.592 318.968C342.592 318.843 343.06 318.749 343.998 318.687C344.998 318.562 346.217 318.468 347.654 318.405C349.154 318.343 350.748 318.312 352.435 318.312C354.185 318.249 355.779 318.218 357.216 318.218C358.716 318.155 359.935 318.124 360.873 318.124C361.873 318.062 362.373 318.03 362.373 318.03C363.81 314.28 365.216 310.718 366.591 307.343C367.966 303.968 369.341 300.562 370.716 297.124C372.091 293.687 373.466 290.187 374.841 286.624C376.216 282.999 377.591 279.125 378.966 275C381.591 267.25 384.154 260.437 386.654 254.562C389.154 248.687 391.497 243.219 393.685 238.156C393.935 237.531 394.341 236.969 394.904 236.469C395.529 235.906 396.185 235.437 396.872 235.062C397.56 234.687 398.216 234.375 398.841 234.125C399.529 233.875 400.06 233.687 400.435 233.562C400.685 233.5 401.622 233.219 403.247 232.719C404.935 232.219 406.841 231.687 408.966 231.125C411.091 230.562 413.185 230.062 415.247 229.625C417.372 229.187 419.06 228.969 420.31 228.969H421.997C422.997 228.969 423.935 229.219 424.81 229.719C425.747 230.156 426.372 231.062 426.685 232.437C429.685 240.125 432.872 248.531 436.247 257.656C439.685 266.718 443.028 276.718 446.278 287.656C448.028 293.531 449.747 299.093 451.434 304.343C453.122 309.593 454.809 314.718 456.497 319.718C458.184 324.718 459.872 329.718 461.559 334.718C463.309 339.718 465.091 344.874 466.903 350.186C467.466 352.436 468.028 354.218 468.591 355.53C469.216 356.843 469.778 357.874 470.278 358.624C470.778 359.374 471.184 359.936 471.497 360.311C471.809 360.624 471.966 360.968 471.966 361.343C471.966 361.718 471.372 362.093 470.184 362.468L450.028 369.03C448.528 369.593 446.997 370.155 445.434 370.718C443.872 371.28 442.403 371.78 441.028 372.218C439.653 372.655 438.435 372.999 437.372 373.249C436.372 373.561 435.653 373.717 435.216 373.717H434.653C433.778 373.717 433.153 373.436 432.778 372.874C432.403 372.374 432.153 371.874 432.028 371.374C431.403 369.311 430.778 367.468 430.153 365.843C429.528 364.155 428.903 362.499 428.278 360.874C427.716 359.186 427.122 357.405 426.497 355.53C425.935 353.655 425.372 351.436 424.81 348.874C424.685 348.561 424.341 348.311 423.778 348.124C423.216 347.874 422.528 347.686 421.716 347.561C420.966 347.436 420.153 347.374 419.278 347.374C418.403 347.311 417.591 347.28 416.841 347.28C414.466 347.28 412.528 347.311 411.029 347.374C409.591 347.374 408.31 347.405 407.185 347.468C406.06 347.468 404.966 347.499 403.904 347.561C402.904 347.561 401.654 347.561 400.154 347.561C398.341 347.561 396.466 347.561 394.529 347.561C392.654 347.499 390.935 347.436 389.372 347.374L384.029 347.186C382.404 351.686 380.779 355.905 379.154 359.843C377.529 363.78 375.779 367.843 373.904 372.03C373.779 372.53 373.466 372.936 372.966 373.249C372.529 373.561 372.06 373.717 371.56 373.717C371.185 373.717 370.966 373.686 370.904 373.624C364.841 371.436 359.748 369.28 355.623 367.155C351.498 365.03 347.904 362.968 344.842 360.968ZM408.029 276.687C406.529 282.25 405.029 287.312 403.529 291.874C402.091 296.374 400.747 300.374 399.497 303.874C398.31 307.374 397.279 310.343 396.404 312.781C395.529 315.155 394.904 316.999 394.529 318.312V319.155C394.529 319.53 394.497 319.78 394.435 319.905H416.935C416.247 316.843 415.497 313.749 414.685 310.624C413.935 307.499 413.185 304.218 412.435 300.781C411.685 297.343 410.935 293.656 410.185 289.718C409.435 285.781 408.716 281.437 408.029 276.687Z" fill="#6534FF"/>
<path d="M597.027 270.406C596.964 275.781 596.433 280.593 595.433 284.843C594.496 289.093 593.121 292.937 591.308 296.374C589.558 299.749 587.402 302.812 584.84 305.562C582.34 308.249 579.465 310.781 576.215 313.155C569.965 317.655 563.121 321.062 555.684 323.374C548.246 325.624 540.777 326.749 533.277 326.749C532.027 326.749 530.778 326.718 529.528 326.655C528.34 326.593 527.121 326.499 525.871 326.374L522.778 360.593L521.184 363.499C521.059 363.749 519.996 364.249 517.996 364.999C515.996 365.749 513.496 366.624 510.496 367.624L504.59 369.593C502.715 370.28 501.059 370.905 499.622 371.468C498.184 372.03 496.84 372.53 495.59 372.968C494.34 373.405 493.122 373.717 491.934 373.905C490.747 374.155 489.497 374.28 488.184 374.28C487.309 374.28 486.622 374.061 486.122 373.624C485.622 373.186 485.372 372.343 485.372 371.093L486.403 355.061C486.59 351.874 486.809 348.686 487.059 345.499C487.372 342.249 487.653 338.562 487.903 334.437L489.684 312.031C490.059 307.468 490.403 302.906 490.715 298.343C491.028 293.781 491.34 289.437 491.653 285.312C491.965 281.187 492.247 277.343 492.497 273.781C492.747 270.156 492.965 267 493.153 264.312C489.778 265.062 487.059 265.625 484.997 266C482.997 266.312 481.465 266.468 480.403 266.468C479.09 266.468 478.434 265.906 478.434 264.781C479.309 261.718 480.122 258.718 480.872 255.781C481.559 253.281 482.247 250.719 482.934 248.094C483.684 245.406 484.309 243.156 484.809 241.344C485.122 240.219 485.465 239.375 485.84 238.812C486.278 238.187 486.809 237.719 487.434 237.406C488.122 237.031 488.965 236.719 489.965 236.469C491.028 236.156 492.309 235.75 493.809 235.25C494.997 234.875 496.653 234.469 498.778 234.031C500.965 233.531 503.434 233.062 506.184 232.625C508.996 232.125 512.028 231.656 515.278 231.219C518.528 230.781 521.809 230.406 525.121 230.094C528.496 229.719 531.809 229.437 535.059 229.25C538.309 229 541.371 228.875 544.246 228.875C551.371 228.875 558.121 229.531 564.496 230.844C570.871 232.156 576.465 234.406 581.277 237.594C586.09 240.719 589.902 244.969 592.715 250.344C595.589 255.656 597.027 262.343 597.027 270.406ZM528.496 298.531C528.496 299.218 528.621 299.843 528.871 300.406C529.121 300.906 529.809 301.156 530.934 301.156C532.684 301.156 534.746 300.781 537.121 300.031C539.559 299.218 541.965 298.031 544.34 296.468C546.777 294.906 549.027 292.968 551.09 290.656C553.152 288.343 554.715 285.624 555.777 282.499C556.215 281.25 556.559 279.656 556.809 277.718C557.121 275.781 557.277 273.5 557.277 270.875C557.277 266.5 555.746 263.281 552.684 261.218C549.684 259.156 545.746 258.125 540.871 258.125C540.059 258.125 539.121 258.187 538.059 258.312C537.059 258.375 536.09 258.531 535.152 258.781C534.277 259.031 533.527 259.343 532.902 259.718C532.277 260.031 531.934 260.468 531.871 261.031L531.684 263.093C531.621 263.906 531.496 265.25 531.309 267.125C531.121 268.937 530.903 271.031 530.653 273.406C530.465 275.781 530.246 278.281 529.996 280.906C529.809 283.531 529.59 286.031 529.34 288.406C529.153 290.781 528.965 292.874 528.778 294.687C528.653 296.499 528.559 297.781 528.496 298.531Z" fill="#6534FF"/>
<path d="M378.38 408.643C378.718 399.561 386.411 392.575 395.471 393.283C449.544 397.507 621.112 411.02 672.678 416.389C680.415 417.195 686.033 423.718 685.869 431.495C684.897 477.633 678.484 483.773 665.955 577.958C664.838 586.356 657.397 592.564 648.951 591.897C580.79 586.515 571.182 580.365 388.68 580.016C379.61 579.998 372.28 572.468 372.618 563.405L378.38 408.643Z" fill="#1F0080"/>
<rect x="376" y="375" width="298" height="198" rx="16" fill="white"/>
<path d="M414 551.562C414.125 548.625 414.219 546.312 414.281 544.625C414.344 542.875 414.375 541.531 414.375 540.594C414.438 539.656 414.469 539 414.469 538.625C414.469 538.25 414.469 537.906 414.469 537.594C414.469 537.219 414.469 536.781 414.469 536.281C414.531 535.781 414.594 534.969 414.656 533.844C414.719 532.656 414.812 531.062 414.938 529.062C415.062 527 415.219 524.281 415.406 520.906C415.531 518.844 415.719 517.438 415.969 516.688C416.281 515.875 417 515.375 418.125 515.188C423.625 515.188 429.375 515.188 435.375 515.188C441.375 515.125 447.031 515.062 452.344 515C452.906 515 453.375 515.156 453.75 515.469C454.125 515.781 454.312 516.375 454.312 517.25L451.688 546.688C451.438 548.75 451.188 550.156 450.938 550.906C450.75 551.719 450.062 552.188 448.875 552.312C443.562 552.375 438.094 552.438 432.469 552.5C426.906 552.562 421.094 552.594 415.031 552.594C414.656 552.594 414.375 552.562 414.188 552.5C414.062 552.438 414 552.25 414 551.938V551.562Z" fill="#6534FF"/>
<path d="M473.062 508.25C473.875 499.688 474.688 491.219 475.5 482.844C476.312 474.469 477.031 465.875 477.656 457.062C477.781 455 477.969 453.594 478.219 452.844C478.531 452.031 479.25 451.5 480.375 451.25C485.688 450.188 491.25 449.094 497.062 447.969C502.875 446.781 508.5 445.281 513.938 443.469C514.125 443.406 514.406 443.375 514.781 443.375C515.469 443.375 515.812 443.625 515.812 444.125L507.375 535.438C507.188 537.5 506.969 538.938 506.719 539.75C506.469 540.5 505.781 541 504.656 541.25C499.344 542.875 493.969 544.688 488.531 546.688C483.094 548.688 477.344 550.719 471.281 552.781C471.094 552.844 470.812 552.875 470.438 552.875C469.75 552.875 469.406 552.562 469.406 551.938C469.406 551.875 469.469 551.031 469.594 549.406C469.719 547.781 469.875 545.688 470.062 543.125C470.312 540.562 470.562 537.688 470.812 534.5C471.062 531.312 471.312 528.125 471.562 524.938C471.875 521.75 472.156 518.688 472.406 515.75C472.656 512.812 472.875 510.312 473.062 508.25ZM480.094 433.438C480.281 430.75 480.406 428.688 480.469 427.25C480.594 425.812 480.688 424.75 480.75 424.062C480.812 423.312 480.844 422.844 480.844 422.656C480.844 422.469 480.844 422.344 480.844 422.281C480.906 422.156 480.938 421.969 480.938 421.719C481 421.406 481.062 420.812 481.125 419.938C481.188 419 481.281 417.656 481.406 415.906C481.531 414.156 481.719 411.75 481.969 408.688C482.094 406.625 482.281 405.219 482.531 404.469C482.844 403.656 483.562 403.125 484.688 402.875C490 401.812 495.562 400.719 501.375 399.594C507.188 398.406 512.812 396.906 518.25 395.094C518.438 395.031 518.719 395 519.094 395C519.281 395.375 519.531 395.625 519.844 395.75L520.125 395.938L518.062 421.625C517.875 423.688 517.625 425.125 517.312 425.938C517.062 426.75 516.406 427.25 515.344 427.438C510.031 428.438 504.656 429.531 499.219 430.719C493.781 431.906 488.031 433.094 481.969 434.281C481.781 434.344 481.5 434.375 481.125 434.375C480.438 434.375 480.094 434.062 480.094 433.438Z" fill="#6534FF"/>
<path d="M605.812 551.375C605.125 551.562 604.219 551.844 603.094 552.219C601.969 552.656 600.875 552.875 599.812 552.875C598.938 552.875 598.156 552.656 597.469 552.219C596.844 551.781 596.531 551.031 596.531 549.969V549.406C596.906 546.031 597.219 543.188 597.469 540.875C597.719 538.5 597.938 536.375 598.125 534.5C598.375 532.562 598.562 530.656 598.688 528.781C598.875 526.844 599.094 524.625 599.344 522.125C599.594 519.562 599.875 516.562 600.188 513.125C600.562 509.625 601 505.281 601.5 500.094C601.812 496.906 602.094 493.656 602.344 490.344C602.594 487.031 602.719 483.969 602.719 481.156C602.719 479.281 602.562 477.562 602.25 476C602 474.375 601.5 473 600.75 471.875C600.062 470.688 599.094 469.781 597.844 469.156C596.594 468.531 595 468.219 593.062 468.219C591.625 468.219 589.625 468.531 587.062 469.156C584.562 469.781 582.062 470.812 579.562 472.25C577.062 473.688 574.844 475.594 572.906 477.969C570.969 480.281 569.875 483.156 569.625 486.594C569.25 491.219 568.906 495.188 568.594 498.5C568.281 501.75 568 504.531 567.75 506.844C567.5 509.094 567.281 510.938 567.094 512.375C566.969 513.812 566.875 515.031 566.812 516.031C566.75 516.281 566.656 516.969 566.531 518.094C566.406 519.219 566.25 520.562 566.062 522.125C565.938 523.688 565.781 525.344 565.594 527.094C565.469 528.844 565.312 530.5 565.125 532.062C565 533.625 564.875 534.969 564.75 536.094C564.688 537.219 564.656 537.906 564.656 538.156C564.656 538.656 564.656 539.094 564.656 539.469C564.719 539.781 564.75 540.094 564.75 540.406C564.75 540.906 564.5 541.344 564 541.719C563.562 542.031 562.531 542.406 560.906 542.844L536.062 551.375C535.375 551.625 534.469 551.938 533.344 552.312C532.219 552.688 531.125 552.875 530.062 552.875C529.188 552.875 528.406 552.656 527.719 552.219C527.094 551.781 526.781 551.031 526.781 549.969L535.312 454.156C535.5 452.094 535.719 450.688 535.969 449.938C536.281 449.125 537 448.594 538.125 448.344C543.812 447.219 549.656 446.094 555.656 444.969C561.656 443.781 567.5 442.281 573.188 440.469C573.688 440.469 573.969 440.562 574.031 440.75C574.156 440.875 574.219 441.094 574.219 441.406C574.219 441.531 574.188 441.719 574.125 441.969C574.125 442.219 574.031 442.781 573.844 443.656C573.719 444.531 573.5 445.875 573.188 447.688C572.938 449.438 572.562 451.906 572.062 455.094C576.375 452.594 580.406 450.594 584.156 449.094C587.969 447.531 591.531 446.344 594.844 445.531C598.219 444.656 601.375 444.094 604.312 443.844C607.25 443.531 610 443.375 612.562 443.375C621.375 443.375 627.781 446.062 631.781 451.438C635.781 456.75 637.781 464.75 637.781 475.438C637.781 476.938 637.75 478.5 637.688 480.125C637.625 481.688 637.5 483.312 637.312 485L633 525.312C632.688 527.938 632.5 530.375 632.438 532.625C632.375 534.812 632.344 537.375 632.344 540.312C632.344 540.812 632.344 541.25 632.344 541.625C632.406 541.938 632.438 542.219 632.438 542.469C632.438 543.031 632.188 543.469 631.688 543.781C631.25 544.094 630.219 544.5 628.594 545L605.812 551.375Z" fill="#6534FF"/>
<defs>
<filter id="filter0_di_286_45" x="28" y="28" width="632" height="632" filterUnits="userSpaceOnUse" color-interpolation-filters="sRGB">
<feFlood flood-opacity="0" result="BackgroundImageFix"/>
<feColorMatrix in="SourceAlpha" type="matrix" values="0 0 0 0 0 0 0 0 0 0 0 0 0 0 0 0 0 0 127 0" result="hardAlpha"/>
<feOffset dx="16" dy="16"/>
<feComposite in2="hardAlpha" operator="out"/>
<feColorMatrix type="matrix" values="0 0 0 0 0.121569 0 0 0 0 0 0 0 0 0 0.501961 0 0 0 1 0"/>
<feBlend mode="normal" in2="BackgroundImageFix" result="effect1_dropShadow_286_45"/>
<feBlend mode="normal" in="SourceGraphic" in2="effect1_dropShadow_286_45" result="shape"/>
<feColorMatrix in="SourceAlpha" type="matrix" values="0 0 0 0 0 0 0 0 0 0 0 0 0 0 0 0 0 0 127 0" result="hardAlpha"/>
<feOffset dx="12" dy="12"/>
<feComposite in2="hardAlpha" operator="arithmetic" k2="-1" k3="1"/>
<feColorMatrix type="matrix" values="0 0 0 0 1 0 0 0 0 0.538275 0 0 0 0 0.203922 0 0 0 1 0"/>
<feBlend mode="normal" in2="shape" result="effect2_innerShadow_286_45"/>
</filter>
</defs>
</svg>
